# xmcd
#
# Track frame offsets: 
#        150
#        17202
#        33652
#        46067
#        61729
#
# Disc length: 1077 seconds
#
# Revision: 1
# Processed by: cddbd v1.5.2PL0 Copyright (c) Steve Scherf et al.
# Submitted via: ExactAudioCopy v0.99pb5
#
DISCID=37043305
DTITLE=Christian Kane - Christian Kane [EP]
DYEAR=2010
DGENRE=Contemporary
TTITLE0=American Made
TTITLE1=The House Rules
TTITLE2=Whiskey In Mind
TTITLE3=Making Circles
TTITLE4=Let Me Go
EXTD=
EXTT0=
EXTT1=
EXTT2=
EXTT3=
EXTT4=
PLAYORDER=
